# xmcd CD database file
#
# Track frame offsets:
#	150
#	14230
#	29017
#	42785
#	57210
#	72512
#	86372
#	102465
#	117202
#	137972
#	151132
#	165627
#	180520
#	194282
#	205000
#
# Disc length: 2920 seconds
#
# Revision: 0
# Processed by: cddbd v1.5PL3 Copyright (c) Steve Scherf et al.
# Submitted via: CDex 1.50
#
DISCID=cf0b660f
DTITLE=Various Artist - Folk Village Vol.1 カレッジポップス集 Disc1
DYEAR=2001
DGENRE=Pop-Folk
TTITLE0=悲しくてやりきれない - ザ・フォーク・クルセダーズ
TTITLE1=コブのない駱駝 - ザ・フォーク・クルセダーズ
TTITLE2=花のかおりに - ザ・フォーク・クルセダーズ
TTITLE3=何のために - ザ・フォーク・クルセダーズ
TTITLE4=戦争は知らない - ザ・フォーク・クルセダーズ
TTITLE5=青年は荒野をめざす - ザ・フォーク・クルセダーズ
TTITLE6=風 - はしだのりひことシューベルツ
TTITLE7=さすらい人の子守唄 - はしだのりひことシューベルツ
TTITLE8=あの時ボクは - 北山修（キタヤマ・オ・サム）
TTITLE9=花嫁 - はしだのりひことクライマックス
TTITLE10=あの素晴らしい愛をもう一度 - 加藤和彦と北山修
TTITLE11=青春のわかれ道 - ジローズ
TTITLE12=忘れないのは - はしだのりひことクライマックス
TTITLE13=家をつくるなら - 加藤和彦
TTITLE14=時は魔法使い - はしだのりひことエンドレス
EXTD=YEAR: 2001
EXTT0=
EXTT1=
EXTT2=
EXTT3=
EXTT4=
EXTT5=
EXTT6=
EXTT7=
EXTT8=
EXTT9=
EXTT10=
EXTT11=
EXTT12=
EXTT13=
EXTT14=
PLAYORDER=
